<svg width="119" height="70" viewBox="0 0 119 70" fill="none" xmlns="http://www.w3.org/2000/svg">
<path d="M84 3H35C17.3269 3 3 17.3269 3 35C3 52.6731 17.3269 67 35 67H84C101.673 67 116 52.6731 116 35C116 17.3269 101.673 3 84 3ZM1 35C1 16.2223 16.2223 1 35 1H84C102.778 1 118 16.2223 118 35C118 53.7777 102.778 69 84 69H35C16.2223 69 1 53.7777 1 35ZM72.375 34.7292C72.375 42.2656 66.2656 48.375 58.7292 48.375C51.1928 48.375 45.0833 42.2656 45.0833 34.7292C45.0833 27.1928 51.1928 21.0833 58.7292 21.0833C66.2656 21.0833 72.375 27.1928 72.375 34.7292Z" stroke="#8D73FF" stroke-width="2" stroke-linecap="round" stroke-linejoin="round"/>
</svg>
